<?xml version="1.0" encoding="UTF-8" standalone="no"?>
<!-- Created with Inkscape (http://www.inkscape.org/) -->

<svg
   xmlns:osb="http://www.openswatchbook.org/uri/2009/osb"
   xmlns:dc="http://purl.org/dc/elements/1.1/"
   xmlns:cc="http://creativecommons.org/ns#"
   xmlns:rdf="http://www.w3.org/1999/02/22-rdf-syntax-ns#"
   xmlns:svg="http://www.w3.org/2000/svg"
   xmlns="http://www.w3.org/2000/svg"
   xmlns:sodipodi="http://sodipodi.sourceforge.net/DTD/sodipodi-0.dtd"
   xmlns:inkscape="http://www.inkscape.org/namespaces/inkscape"
   width="1500mm"
   height="600mm"
   viewBox="0 0 5314.9605 2125.9842"
   id="svg2"
   version="1.1"
   inkscape:version="0.91 r13725"
   sodipodi:docname="appropriate-logo-full.svg"
   inkscape:export-filename="/Users/mike/Documents/appropriate-logo.png"
   inkscape:export-xdpi="90"
   inkscape:export-ydpi="90">
  <defs
     id="defs4">
    <linearGradient
       id="linearGradient4258"
       osb:paint="solid">
      <stop
         style="stop-color:#c19d17;stop-opacity:1;"
         offset="0"
         id="stop4260" />
    </linearGradient>
  </defs>
  <sodipodi:namedview
     id="base"
     pagecolor="#ffffff"
     bordercolor="#666666"
     borderopacity="1.0"
     inkscape:pageopacity="0.0"
     inkscape:pageshadow="2"
     inkscape:zoom="0.16246614"
     inkscape:cx="2632.8867"
     inkscape:cy="1061.7576"
     inkscape:document-units="mm"
     inkscape:current-layer="layer1"
     showgrid="false"
     showguides="true"
     inkscape:guide-bbox="true"
     inkscape:window-width="1280"
     inkscape:window-height="751"
     inkscape:window-x="0"
     inkscape:window-y="0"
     inkscape:window-maximized="1" />
  <metadata
     id="metadata7">
    <rdf:RDF>
      <cc:Work
         rdf:about="">
        <dc:format>image/svg+xml</dc:format>
        <dc:type
           rdf:resource="http://purl.org/dc/dcmitype/StillImage" />
        <dc:title></dc:title>
        <dc:creator>
          <cc:Agent>
            <dc:title>Mike Dillon</dc:title>
          </cc:Agent>
        </dc:creator>
        <dc:date>2015-04-01</dc:date>
        <dc:publisher>
          <cc:Agent>
            <dc:title>Appropriate Computing, LLC</dc:title>
          </cc:Agent>
        </dc:publisher>
      </cc:Work>
    </rdf:RDF>
  </metadata>
  <g
     inkscape:groupmode="layer"
     id="layer2"
     inkscape:label="Background" />
  <g
     inkscape:label="Foreground"
     inkscape:groupmode="layer"
     id="layer1"
     transform="translate(0,1073.622)">
    <rect
       style="opacity:1;fill:#808000;fill-opacity:1;stroke:#4c462c;stroke-width:70.86614227;stroke-miterlimit:4;stroke-dasharray:none;stroke-opacity:1"
       id="rect4311"
       width="5284.0957"
       height="2057.6697"
       x="24.692036"
       y="-1038.2302" />
    <g
       id="container">
      <g
         transform="translate(106.99882,-177.1652)"
         id="logo">
        <path
           id="sun"
           d="m 885.82661,-643.99858 103.08468,159.68279 147.38401,-120.0124 48.6948,183.72224 177.2563,-68.59439 -10.4619,189.77771 189.7777,-10.46191 -68.5943,177.25647 183.7224,48.694675 -120.0126,147.384058 159.6829,103.084687 -159.6829,103.08468 120.0126,147.38406 -183.7224,48.69467 68.5943,177.25646 -189.7777,-10.46193 10.4619,189.77771 -177.2563,-68.59438 -48.6948,183.72224 L 988.91129,817.38647 885.82661,977.06924 782.74192,817.38647 635.35787,937.39886 586.66319,753.67662 409.40674,822.271 419.86866,632.49329 230.09096,642.95522 298.68534,465.69876 114.9631,417.00409 234.97549,269.62003 75.292716,166.53535 234.97549,63.450663 114.9631,-83.933395 l 183.72224,-48.694675 -68.59438,-177.25647 189.7777,10.46191 -10.46192,-189.77771 177.25645,68.59439 48.69468,-183.72224 147.38405,120.0124 z"
           class="star-shape"
           inkscape:connector-curvature="0"
           style="fill:#f0c739;fill-opacity:1;stroke:#c39e17;stroke-width:28.34645271;stroke-miterlimit:4;stroke-dasharray:none;stroke-opacity:1" />
        <circle
           style="opacity:1;fill:#eece5e;fill-opacity:1;stroke:#4c462c;stroke-width:35.43306732;stroke-miterlimit:4;stroke-dasharray:none;stroke-opacity:1"
           id="circle"
           cx="886.00281"
           cy="166.33716"
           r="581.0545" />
        <g
           id="capital-letter-a"
           style="font-style:normal;font-variant:normal;font-weight:600;font-stretch:normal;font-size:1249.99987793px;line-height:125%;font-family:'Cabin Condensed';-inkscape-font-specification:'Cabin Condensed, Semi-Bold';letter-spacing:0px;word-spacing:0px;fill:#4c462c;fill-opacity:1;stroke:none;stroke-width:1px;stroke-linecap:butt;stroke-linejoin:miter;stroke-opacity:1">
          <path
             inkscape:connector-curvature="0"
             id="path4158"
             d="m 1072.7017,549.17194 -63.75,-218.74998 -246.25,0 -63.74999,218.74998 -147.49999,0 267.49997,-874.99992 133.74999,0 267.50002,874.99992 -147.5,0 z M 885.20169,-100.828 812.7017,190.42197 l 147.49998,0 -74.99999,-291.24997 z" />
        </g>
      </g>
      <g
         id="text"
         style="font-style:normal;font-variant:normal;font-weight:bold;font-stretch:normal;font-size:625px;line-height:125%;font-family:Cabin;-inkscape-font-specification:'Cabin Bold';text-align:center;letter-spacing:0px;word-spacing:0px;text-anchor:middle;fill:#4c462c;fill-opacity:1;stroke:none;stroke-width:1px;stroke-linecap:butt;stroke-linejoin:miter;stroke-opacity:1">
        <path
           id="path4243"
           style=""
           d="m 2329.761,-227.70717 -83.125,0 -37.5,-105.625 -145.625,0 -37.5,105.625 -83.125,0 155.625,-437.5 75.625,0 155.625,437.5 z m -148.125,-183.125 -45.625,-128.125 -45,128.125 90.625,0 z" />
        <path
           id="path4245"
           style=""
           d="m 2518.511,-221.45717 q -41.875,0 -73.125,-21.25 l 0,166.250001 -77.5,0 0,-463.750001 67.5,0 6.25,18.125 q 34.375,-23.125 76.875,-23.125 35.625,0 63.75,12.5 28.75,12.5 48.125,34.375 20,21.875 30.625,51.875 10.625,29.375 10.625,63.125 0,33.75 -10.625,63.125 -10,29.375 -29.375,51.875 -19.375,21.875 -48.125,34.375 -28.75,12.5 -65,12.5 z m -5,-260 q -36.25,0 -54.375,26.25 -17.5,26.25 -17.5,71.875 0,45.625 17.5,71.875 18.125,26.25 54.375,26.25 37.5,0 58.125,-26.25 20.625,-26.875 20.625,-71.875 0,-45 -20.625,-71.25 -20.625,-26.875 -58.125,-26.875 z" />
        <path
           id="path4247"
           style=""
           d="m 2876.177,-221.45717 q -41.875,0 -73.125,-21.25 l 0,166.250001 -77.5,0 0,-463.750001 67.5,0 6.25,18.125 q 34.375,-23.125 76.875,-23.125 35.625,0 63.75,12.5 28.75,12.5 48.125,34.375 20,21.875 30.625,51.875 10.625,29.375 10.625,63.125 0,33.75 -10.625,63.125 -10,29.375 -29.375,51.875 -19.375,21.875 -48.125,34.375 -28.75,12.5 -65,12.5 z m -5,-260 q -36.25,0 -54.375,26.25 -17.5,26.25 -17.5,71.875 0,45.625 17.5,71.875 18.125,26.25 54.375,26.25 37.5,0 58.125,-26.25 20.625,-26.875 20.625,-71.875 0,-45 -20.625,-71.25 -20.625,-26.875 -58.125,-26.875 z" />
        <path
           id="path4249"
           style=""
           d="m 3261.343,-545.20717 -15,73.125 -28.75,0 q -18.75,0 -34.375,8.75 -15.625,8.75 -22.5,22.5 l 0,213.125 -77.5,0 0,-312.5 72.5,0 1.875,33.125 q 36.25,-38.125 83.125,-38.125 l 20.625,0 z" />
        <path
           id="path4251"
           style=""
           d="m 3545.1125,-268.33217 q -42.5,46.875 -115,46.875 -36.25,0 -65.625,-12.5 -28.75,-12.5 -49.375,-34.375 -20.625,-21.875 -31.875,-51.25 -11.25,-29.375 -11.25,-63.75 0,-33.75 11.25,-63.125 11.25,-30 31.875,-51.875 20.625,-21.875 49.375,-34.375 29.375,-12.5 65.625,-12.5 36.25,0 65.625,13.125 29.375,12.5 50,34.375 20.625,21.875 31.25,51.25 11.25,29.375 11.25,63.125 0,68.125 -43.125,115 z m -57.5,-186.25 q -20.625,-26.875 -57.5,-26.875 -37.5,0 -58.125,26.875 -20.625,26.875 -20.625,71.25 0,44.375 20.625,71.25 20.625,26.875 58.125,26.875 37.5,0 58.125,-27.5 20.625,-27.5 20.625,-70.625 0,-44.375 -21.25,-71.25 z" />
        <path
           id="path4253"
           style=""
           d="m 3791.7043,-221.45717 q -41.875,0 -73.125,-21.25 l 0,166.250001 -77.5,0 0,-463.750001 67.5,0 6.25,18.125 q 34.375,-23.125 76.875,-23.125 35.625,0 63.75,12.5 28.75,12.5 48.125,34.375 20,21.875 30.625,51.875 10.625,29.375 10.625,63.125 0,33.75 -10.625,63.125 -10,29.375 -29.375,51.875 -19.375,21.875 -48.125,34.375 -28.75,12.5 -65,12.5 z m -5,-260 q -36.25,0 -54.375,26.25 -17.5,26.25 -17.5,71.875 0,45.625 17.5,71.875 18.125,26.25 54.375,26.25 37.5,0 58.125,-26.25 20.625,-26.875 20.625,-71.875 0,-45 -20.625,-71.25 -20.625,-26.875 -58.125,-26.875 z" />
        <path
           id="path4255"
           style=""
           d="m 4176.8704,-545.20717 -15,73.125 -28.75,0 q -18.75,0 -34.375,8.75 -15.625,8.75 -22.5,22.5 l 0,213.125 -77.5,0 0,-312.5 72.5,0 1.875,33.125 q 36.25,-38.125 83.125,-38.125 l 20.625,0 z" />
        <path
           id="path4257"
           style=""
           d="m 4289.8684,-587.70717 -77.5,0 0,-77.5 77.5,0 0,77.5 z m 0,360 -77.5,0 0,-312.5 77.5,0 0,312.5 z" />
        <path
           id="path4259"
           style=""
           d="m 4630.6399,-285.20717 -6.875,63.75 -28.125,0 q -50.625,0 -70,-36.25 -32.5,36.25 -95.625,36.25 -19.375,0 -36.25,-6.25 -16.25,-6.875 -28.75,-18.75 -11.875,-12.5 -18.75,-29.375 -6.875,-17.5 -6.875,-39.375 0,-31.875 18.75,-53.125 18.75,-21.25 45.625,-33.75 26.875,-13.125 56.875,-18.75 30.625,-5.625 54.375,-6.25 -1.25,-28.125 -13.75,-39.375 -12.5,-11.875 -42.5,-11.875 -36.875,0 -85.625,23.75 l -6.875,-63.125 q 58.125,-27.5 113.75,-27.5 113.125,0 113.125,125.625 l 0,84.375 q 0,16.875 0.625,26.875 1.25,10 3.75,15.625 3.125,5 8.75,6.25 5.625,1.25 14.375,1.25 l 10,0 z m -115,-18.125 0,-71.25 q -18.125,1.25 -35.625,5 -16.875,3.75 -30,11.25 -13.125,6.875 -21.25,16.875 -8.125,10 -8.125,23.125 0,37.5 41.875,37.5 29.375,0 53.125,-22.5 z" />
        <path
           id="path4261"
           style=""
           d="m 4833.2864,-285.20717 -6.875,63.75 -55.625,0 q -20.625,0 -36.25,-6.25 -15.625,-6.875 -26.25,-17.5 -10.625,-11.25 -16.25,-26.25 -5,-15 -5,-31.875 l 0,-173.125 -44.375,0 6.875,-63.75 37.5,0 0,-68.75 77.5,-8.125 0,76.875 68.75,0 0,63.75 -68.75,0 0,141.25 q 0,18.125 1.25,28.125 1.25,10 5.625,15 5,5 14.375,6.25 9.375,0.625 26.25,0.625 l 21.25,0 z" />
        <path
           id="path4263"
           style=""
           d="m 5148.7258,-367.08217 -201.875,0 q 6.25,40.625 32.5,61.25 26.875,20.625 60.625,20.625 10.625,0 23.125,-1.875 12.5,-1.875 25,-5 13.125,-3.75 25.625,-8.125 12.5,-5 22.5,-10.625 l 3.75,65.625 q -45.625,23.75 -104.375,23.75 -41.25,0 -73.125,-12.5 -31.25,-12.5 -53.125,-33.75 -21.25,-21.875 -32.5,-51.25 -10.625,-30 -10.625,-64.375 0,-33.75 10,-63.125 10.625,-29.375 30,-51.25 19.375,-22.5 46.875,-35 28.125,-12.5 63.125,-12.5 29.375,0 54.375,10 25.625,9.375 43.75,27.5 18.75,17.5 28.75,42.5 10.625,25 10.625,55.625 0,17.5 -5,42.5 z m -200,-52.5 126.25,0 q 0,-24.375 -13.75,-43.125 -13.75,-18.75 -42.5,-18.75 -28.75,0 -46.25,16.875 -17.5,16.875 -23.75,45 z" />
        <path
           id="path4265"
           style=""
           d="m 2296.9192,562.29283 q -46.875,0 -86.875,-16.25 -39.375,-16.25 -68.125,-46.25 -28.75,-30 -45,-71.875 -15.625,-41.875 -15.625,-93.125 0,-51.25 16.25,-93.125 16.25,-41.875 44.375,-71.875 28.75,-30 68.125,-46.25 40,-16.25 86.875,-16.25 71.25,0 124.375,25.625 l -8.75,76.25 q -61.875,-25 -115.625,-25 -31.25,0 -55,11.25 -23.75,10.625 -40,30.625 -16.25,19.375 -25,47.5 -8.125,27.5 -8.125,61.25 0,33.75 8.125,61.875 8.75,27.5 25,47.5 16.25,19.375 40,30.625 23.75,10.625 55,10.625 53.75,0 115.625,-25 l 8.75,76.25 q -53.125,25.625 -124.375,25.625 z" />
        <path
           id="path4267"
           style=""
           d="m 2724.8,512.91783 q -42.5,46.875 -115,46.875 -36.25,0 -65.625,-12.5 -28.75,-12.5 -49.375,-34.375 -20.625,-21.875 -31.875,-51.25 -11.25,-29.375 -11.25,-63.75 0,-33.75 11.25,-63.125 11.25,-30 31.875,-51.875 20.625,-21.875 49.375,-34.375 29.375,-12.5 65.625,-12.5 36.25,0 65.625,13.125 29.375,12.5 50,34.375 20.625,21.875 31.25,51.25 11.25,29.375 11.25,63.125 0,68.125 -43.125,115 z m -57.5,-186.25 q -20.625,-26.875 -57.5,-26.875 -37.5,0 -58.125,26.875 -20.625,26.875 -20.625,71.25 0,44.375 20.625,71.25 20.625,26.875 58.125,26.875 37.5,0 58.125,-27.5 20.625,-27.5 20.625,-70.625 0,-44.375 -21.25,-71.25 z" />
        <path
           id="path4269"
           style=""
           d="m 3292.6418,553.54283 -77.5,0 0,-168.125 q 0,-45 -13.125,-65 -13.125,-20.625 -45,-20.625 -35,0 -48.75,16.25 -13.125,16.25 -13.125,44.375 l 0,193.125 -76.875,0 0,-168.125 q 0,-24.375 -3.75,-40.625 -3.125,-16.875 -10.625,-26.875 -7.5,-10 -19.375,-13.75 -11.875,-4.375 -28.75,-4.375 -35.625,0 -57.5,25.625 l 0,228.125 -77.5,0 0,-312.5 63.75,0 4.375,24.375 q 36.25,-29.375 80,-29.375 28.75,0 54.375,12.5 25.625,11.875 41.25,35 4.375,-8.75 13.75,-16.875 10,-8.75 23.125,-15.625 13.75,-6.875 30.625,-10.625 16.875,-4.375 36.25,-4.375 30.625,0 53.75,10.625 23.75,10.625 39.375,30 15.625,19.375 23.125,47.5 8.125,27.5 8.125,61.25 l 0,168.125 z" />
        <path
           id="path4271"
           style=""
           d="m 3512.1633,559.79283 q -41.875,0 -73.125,-21.25 l 0,166.25 -77.5,0 0,-463.75 67.5,0 6.25,18.125 q 34.375,-23.125 76.875,-23.125 35.625,0 63.75,12.5 28.75,12.5 48.125,34.375 20,21.875 30.625,51.875 10.625,29.375 10.625,63.125 0,33.75 -10.625,63.125 -10,29.375 -29.375,51.875 -19.375,21.875 -48.125,34.375 -28.75,12.5 -65,12.5 z m -5,-260 q -36.25,0 -54.375,26.25 -17.5,26.25 -17.5,71.875 0,45.625 17.5,71.875 18.125,26.25 54.375,26.25 37.5,0 58.125,-26.25 20.625,-26.875 20.625,-71.875 0,-45 -20.625,-71.25 -20.625,-26.875 -58.125,-26.875 z" />
        <path
           id="path4273"
           style=""
           d="m 3991.7043,553.54283 -72.5,0 -1.25,-18.75 q -32.5,25 -69.375,25 -132.5,0 -132.5,-150.625 l 0,-168.125 77.5,0 0,168.125 q 0,43.75 14.375,65 15,20.625 47.5,20.625 36.25,0 58.75,-26.25 l 0,-227.5 77.5,0 0,312.5 z" />
        <path
           id="path4275"
           style=""
           d="m 4229.0383,496.04283 -6.875,63.75 -55.625,0 q -20.625,0 -36.25,-6.25 -15.625,-6.875 -26.25,-17.5 -10.625,-11.25 -16.25,-26.25 -5,-15 -5,-31.875 l 0,-173.125 -44.375,0 6.875,-63.75 37.5,0 0,-68.75 77.5,-8.125 0,76.875 68.75,0 0,63.75 -68.75,0 0,141.25 q 0,18.125 1.25,28.125 1.25,10 5.625,15 5,5 14.375,6.25 9.375,0.625 26.25,0.625 l 21.25,0 z" />
        <path
           id="path4277"
           style=""
           d="m 4358.2278,193.54283 -77.5,0 0,-77.5 77.5,0 0,77.5 z m 0,360 -77.5,0 0,-312.5 77.5,0 0,312.5 z" />
        <path
           id="path4279"
           style=""
           d="m 4706.4993,553.54283 -77.5,0 0,-168.125 q 0,-43.75 -15,-64.375 -14.375,-21.25 -46.875,-21.25 -35.625,0 -58.75,26.875 l 0,226.875 -77.5,0 0,-312.5 72.5,0 1.25,18.75 q 33.125,-23.75 68.75,-23.75 133.125,0 133.125,149.375 l 0,168.125 z" />
        <path
           id="path4281"
           style=""
           d="m 4902.5833,709.79283 q -36.25,0 -63.75,-7.5 -27.5,-7.5 -46.25,-20 -18.75,-12.5 -28.125,-29.375 -9.375,-16.875 -9.375,-35.625 0,-43.125 51.25,-70 -28.125,-17.5 -28.125,-45 0,-27.5 31.25,-42.5 -48.125,-35 -48.125,-100.625 0,-26.25 8.75,-48.75 8.75,-22.5 25,-38.75 16.875,-16.875 40,-26.25 23.75,-9.375 53.125,-9.375 41.875,0 71.25,18.75 25,-13.75 66.875,-13.75 l 20,0 -5,48.75 -28.125,0 q -5,0 -10,0 -4.375,0 -7.5,0.625 18.75,29.375 18.75,68.75 0,25.625 -8.75,48.125 -8.125,22.5 -24.375,39.375 -15.625,16.25 -39.375,26.25 -23.75,9.375 -53.75,9.375 -8.125,0 -16.25,-0.625 -8.125,-1.25 -16.875,-2.5 -6.875,3.125 -6.875,10 0,11.25 16.875,15.625 17.5,4.375 61.25,10 20.625,2.5 41.875,7.5 21.875,4.375 39.375,15 18.125,10 30,26.875 12.5,17.5 14.375,45 0,46.875 -38.75,73.75 -38.75,26.875 -110.625,26.875 z m -14.375,-416.875 q -28.125,0 -43.125,18.125 -14.375,17.5 -14.375,48.125 0,30.625 14.375,48.75 15,17.5 43.125,17.5 28.125,0 42.5,-17.5 14.375,-18.125 14.375,-48.75 0,-30.625 -14.375,-48.125 -14.375,-18.125 -42.5,-18.125 z m 11.875,279.375 q -16.875,-1.875 -37.5,-5.625 -43.125,14.375 -43.125,43.125 0,20.625 20.625,32.5 21.25,12.5 58.75,12.5 37.5,0 60.625,-11.25 23.75,-11.25 23.75,-31.25 0,-20 -23.75,-28.125 -23.125,-8.125 -59.375,-11.875 z" />
      </g>
    </g>
  </g>
</svg>
