<?xml version="1.0" encoding="UTF-8" standalone="no"?>
<!-- Created with Inkscape (http://www.inkscape.org/) -->

<svg
   xmlns:osb="http://www.openswatchbook.org/uri/2009/osb"
   xmlns:dc="http://purl.org/dc/elements/1.1/"
   xmlns:cc="http://creativecommons.org/ns#"
   xmlns:rdf="http://www.w3.org/1999/02/22-rdf-syntax-ns#"
   xmlns:svg="http://www.w3.org/2000/svg"
   xmlns="http://www.w3.org/2000/svg"
   xmlns:sodipodi="http://sodipodi.sourceforge.net/DTD/sodipodi-0.dtd"
   xmlns:inkscape="http://www.inkscape.org/namespaces/inkscape"
   width="92mm"
   height="54mm"
   viewBox="0 0 92 54"
   id="svg4152"
   version="1.1"
   inkscape:version="0.91 r13725"
   sodipodi:docname="mike-dillon-business-card.svg">
  <defs
     id="defs3">
    <linearGradient
       osb:paint="solid"
       id="linearGradient4258">
      <stop
         id="stop4260"
         offset="0"
         style="stop-color:#c19d17;stop-opacity:1;" />
    </linearGradient>
  </defs>
  <sodipodi:namedview
     id="base"
     pagecolor="#ffffff"
     bordercolor="#666666"
     borderopacity="1.0"
     inkscape:pageopacity="0.0"
     inkscape:pageshadow="2"
     inkscape:zoom="1.867633"
     inkscape:cx="162.99213"
     inkscape:cy="95.669291"
     inkscape:document-units="mm"
     inkscape:current-layer="layer1"
     showgrid="false"
     showguides="true"
     inkscape:guide-bbox="true"
     units="mm"
     inkscape:window-width="1280"
     inkscape:window-height="751"
     inkscape:window-x="0"
     inkscape:window-y="0"
     inkscape:window-maximized="1">
    <sodipodi:guide
       position="0,1.5"
       orientation="0,1"
       id="guide4699"
       inkscape:label=""
       inkscape:color="rgb(255,0,8)" />
    <sodipodi:guide
       position="0,52.500001"
       orientation="0,1"
       id="guide4701"
       inkscape:label=""
       inkscape:color="rgb(255,0,0)" />
    <sodipodi:guide
       position="1.5,0"
       orientation="1,0"
       id="guide4703"
       inkscape:label=""
       inkscape:color="rgb(255,0,0)" />
    <sodipodi:guide
       position="90.5,0"
       orientation="1,0"
       id="guide4705"
       inkscape:label=""
       inkscape:color="rgb(255,0,0)" />
    <sodipodi:guide
       position="3,0"
       orientation="1,0"
       id="guide5314"
       inkscape:label=""
       inkscape:color="rgb(0,0,255)" />
    <sodipodi:guide
       position="89,0"
       orientation="1,0"
       id="guide5316"
       inkscape:label=""
       inkscape:color="rgb(0,0,255)" />
    <sodipodi:guide
       position="0,3.0000001"
       orientation="0,1"
       id="guide5318"
       inkscape:label=""
       inkscape:color="rgb(0,0,255)" />
    <sodipodi:guide
       position="0,51.000001"
       orientation="0,1"
       id="guide5320"
       inkscape:label=""
       inkscape:color="rgb(0,0,255)" />
  </sodipodi:namedview>
  <metadata
     id="metadata4156">
    <rdf:RDF>
      <cc:Work
         rdf:about="">
        <dc:format>image/svg+xml</dc:format>
        <dc:type
           rdf:resource="http://purl.org/dc/dcmitype/StillImage" />
        <dc:title />
      </cc:Work>
    </rdf:RDF>
  </metadata>
  <g
     inkscape:label="Layer 1"
     inkscape:groupmode="layer"
     id="layer1"
     transform="translate(0,3.9999998)">
    <g
       transform="matrix(0.01189697,0,0,0.01189697,4.0476398,8.7204568)"
       id="layer1-5"
       inkscape:label="Layer 1"
       style="opacity:1">
      <g
         id="logo">
        <path
           id="sun"
           d="m 885.82661,-643.99858 103.08468,159.68279 147.38401,-120.0124 48.6948,183.72224 177.2563,-68.59439 -10.4619,189.77771 189.7777,-10.46191 -68.5943,177.25647 183.7224,48.694675 -120.0126,147.384058 159.6829,103.084687 -159.6829,103.08468 120.0126,147.38406 -183.7224,48.69467 68.5943,177.25646 -189.7777,-10.46193 10.4619,189.77771 -177.2563,-68.59438 -48.6948,183.72224 L 988.91129,817.38647 885.82661,977.06924 782.74192,817.38647 635.35787,937.39886 586.66319,753.67662 409.40674,822.271 419.86866,632.49329 230.09096,642.95522 298.68534,465.69876 114.9631,417.00409 234.97549,269.62003 75.292716,166.53535 234.97549,63.450663 114.9631,-83.933395 l 183.72224,-48.694675 -68.59438,-177.25647 189.7777,10.46191 -10.46192,-189.77771 177.25645,68.59439 48.69468,-183.72224 147.38405,120.0124 z"
           class="star-shape"
           inkscape:connector-curvature="0"
           style="fill:none;fill-opacity:1;stroke:#000000;stroke-width:28.34645271;stroke-miterlimit:4;stroke-dasharray:none;stroke-opacity:1" />
        <circle
           style="opacity:1;fill:none;fill-opacity:1;stroke:#000000;stroke-width:35.43306732;stroke-miterlimit:4;stroke-dasharray:none;stroke-opacity:1"
           id="circle"
           cx="886.00281"
           cy="166.33716"
           r="581.0545" />
        <g
           id="capital-letter-a"
           style="font-style:normal;font-variant:normal;font-weight:600;font-stretch:normal;font-size:1249.99987793px;line-height:125%;font-family:'Cabin Condensed';-inkscape-font-specification:'Cabin Condensed, Semi-Bold';letter-spacing:0px;word-spacing:0px;fill:#000000;fill-opacity:1;stroke:none;stroke-width:1px;stroke-linecap:butt;stroke-linejoin:miter;stroke-opacity:1">
          <path
             id="path4158"
             style="fill:#000000;fill-opacity:1"
             d="m 1072.7017,549.17194 -63.75,-218.74998 -246.25,0 -63.74999,218.74998 -147.49999,0 267.49997,-874.99992 133.74999,0 267.50002,874.99992 -147.5,0 z M 885.20169,-100.828 812.7017,190.42197 l 147.49998,0 -74.99999,-291.24997 z"
             inkscape:connector-curvature="0" />
        </g>
      </g>
    </g>
    <g
       id="g5308">
      <text
         sodipodi:linespacing="125%"
         id="text5296"
         y="10.440042"
         x="86.609879"
         style="font-style:normal;font-variant:normal;font-weight:bold;font-stretch:normal;font-size:4.8548317px;line-height:125%;font-family:Cabin;-inkscape-font-specification:'Cabin Bold';text-align:end;letter-spacing:0px;word-spacing:0px;writing-mode:lr-tb;text-anchor:end;fill:#000000;fill-opacity:1;stroke:none;stroke-width:1px;stroke-linecap:butt;stroke-linejoin:miter;stroke-opacity:1"
         xml:space="preserve"><tspan
           id="tspan5300"
           y="10.440042"
           x="86.609879"
           sodipodi:role="line">APPROPRIATE COMPUTING</tspan></text>
      <text
         sodipodi:linespacing="125%"
         id="text5304"
         y="14.194365"
         x="30.378048"
         style="font-style:normal;font-variant:normal;font-weight:normal;font-stretch:normal;font-size:2.95142651px;line-height:125%;font-family:Cabin;-inkscape-font-specification:'Cabin, Normal';text-align:start;letter-spacing:0px;word-spacing:0px;writing-mode:lr-tb;text-anchor:start;fill:#000000;fill-opacity:1;stroke:none;stroke-width:1px;stroke-linecap:butt;stroke-linejoin:miter;stroke-opacity:1"
         xml:space="preserve"><tspan
           y="14.194365"
           x="30.378048"
           id="tspan5306"
           sodipodi:role="line">Software solutions for a world in transition </tspan></text>
    </g>
    <g
       id="g4183"
       transform="translate(0,-1.0683092)">
      <text
         sodipodi:linespacing="125%"
         id="text5322"
         y="40.142284"
         x="4.9904342"
         style="font-style:normal;font-variant:normal;font-weight:600;font-stretch:normal;font-size:3.52777791px;line-height:125%;font-family:Cabin;-inkscape-font-specification:'Cabin Semi-Bold';text-align:start;letter-spacing:0px;word-spacing:0px;writing-mode:lr-tb;text-anchor:start;fill:#000000;fill-opacity:1;stroke:none;stroke-width:1px;stroke-linecap:butt;stroke-linejoin:miter;stroke-opacity:1"
         xml:space="preserve"><tspan
           y="40.142284"
           x="4.9904342"
           id="tspan5324"
           sodipodi:role="line">Mike Dillon</tspan></text>
      <text
         sodipodi:linespacing="125%"
         id="text5326"
         y="43.982121"
         x="4.895184"
         style="font-style:normal;font-variant:normal;font-weight:normal;font-stretch:normal;font-size:3.17499995px;line-height:125%;font-family:Cabin;-inkscape-font-specification:'Cabin, Normal';text-align:start;letter-spacing:0px;word-spacing:0px;writing-mode:lr-tb;text-anchor:start;fill:#000000;fill-opacity:1;stroke:none;stroke-width:1px;stroke-linecap:butt;stroke-linejoin:miter;stroke-opacity:1"
         xml:space="preserve"><tspan
           y="43.982121"
           x="4.895184"
           id="tspan5328"
           sodipodi:role="line">Principal</tspan></text>
    </g>
    <g
       id="g4207"
       transform="translate(33.839081,3.0666654)">
      <g
         id="g4189"
         transform="translate(0,1.2032507e-6)">
        <g
           style="font-style:normal;font-variant:normal;font-weight:normal;font-stretch:normal;font-size:2.82222223px;line-height:125%;font-family:Cabin;-inkscape-font-specification:'Cabin, Normal';text-align:start;letter-spacing:0px;word-spacing:0px;writing-mode:lr-tb;text-anchor:start;fill:#000000;fill-opacity:1;stroke:none;stroke-width:1px;stroke-linecap:butt;stroke-linejoin:miter;stroke-opacity:1"
           id="text4159">
          <path
             d="m 26.916928,35.427745 c 0,0.02677 -0.02362,0.0504 -0.0504,0.0504 l -2.318254,0 c -0.02677,0 -0.0504,-0.02362 -0.0504,-0.0504 l 0,-1.209524 c 0.03307,0.0378 0.0693,0.07245 0.108668,0.103944 0.225211,0.173239 0.451996,0.349628 0.670907,0.532316 0.118118,0.09922 0.264584,0.220486 0.428373,0.220486 l 0.0016,0 0.0016,0 c 0.16379,0 0.310256,-0.121267 0.428373,-0.220486 0.218912,-0.182688 0.445697,-0.359077 0.670908,-0.532316 0.03937,-0.0315 0.07559,-0.06615 0.108668,-0.103944 l 0,1.209524 z m 0,-1.655221 c 0,0.133867 -0.129142,0.308681 -0.23151,0.389001 -0.211037,0.165364 -0.422074,0.332304 -0.631535,0.499243 -0.08347,0.06772 -0.234661,0.212612 -0.344904,0.212612 l -0.0016,0 -0.0016,0 c -0.110243,0 -0.261433,-0.144891 -0.344903,-0.212612 -0.209462,-0.166939 -0.420498,-0.333879 -0.631535,-0.499243 -0.141741,-0.111818 -0.23151,-0.267733 -0.23151,-0.447272 0,-0.02677 0.02362,-0.0504 0.0504,-0.0504 l 2.318254,0 c 0.05985,0 0.0504,0.0693 0.0504,0.108668 z m 0.201587,-0.05827 c 0,-0.138591 -0.113392,-0.251984 -0.251984,-0.251984 l -2.318254,0 c -0.138591,0 -0.251984,0.113393 -0.251984,0.251984 l 0,1.713492 c 0,0.138591 0.113393,0.251984 0.251984,0.251984 l 2.318254,0 c 0.138592,0 0.251984,-0.113393 0.251984,-0.251984 l 0,-1.713492 z"
             style="font-style:normal;font-variant:normal;font-weight:normal;font-stretch:normal;font-size:2.82222223px;font-family:FontAwesome;-inkscape-font-specification:FontAwesome"
             id="path4781" />
        </g>
        <text
           xml:space="preserve"
           style="font-style:normal;font-variant:normal;font-weight:normal;font-stretch:normal;font-size:2.82222223px;line-height:125%;font-family:Cabin;-inkscape-font-specification:'Cabin, Normal';text-align:start;letter-spacing:0px;word-spacing:0px;writing-mode:lr-tb;text-anchor:start;fill:#000000;fill-opacity:1;stroke:none;stroke-width:1px;stroke-linecap:butt;stroke-linejoin:miter;stroke-opacity:1"
           x="28.762985"
           y="35.478142"
           id="text4171"
           sodipodi:linespacing="125%"><tspan
             sodipodi:role="line"
             id="tspan4173"
             x="28.762985"
             y="35.478142">mike＠appropriate.io</tspan></text>
      </g>
      <g
         id="g4195"
         transform="translate(0,-1.2466296)">
        <g
           style="font-style:normal;font-variant:normal;font-weight:normal;font-stretch:normal;font-size:2.82222223px;line-height:125%;font-family:Cabin;-inkscape-font-specification:'Cabin, Normal';text-align:start;letter-spacing:0px;word-spacing:0px;writing-mode:lr-tb;text-anchor:start;fill:#000000;fill-opacity:1;stroke:none;stroke-width:1px;stroke-linecap:butt;stroke-linejoin:miter;stroke-opacity:1"
           id="text4167">
          <path
             d="m 27.118514,38.140508 c -0.09134,0.03937 -0.190563,0.06772 -0.292931,0.07875 0.105518,-0.063 0.185838,-0.162215 0.223636,-0.280332 -0.09764,0.05827 -0.207887,0.100793 -0.322855,0.122842 -0.09292,-0.09922 -0.225211,-0.16064 -0.371677,-0.16064 -0.281907,0 -0.508693,0.228361 -0.508693,0.508693 0,0.03937 0.0047,0.07874 0.0126,0.116543 -0.422074,-0.02205 -0.798475,-0.223636 -1.048884,-0.532317 -0.0441,0.07559 -0.0693,0.162215 -0.0693,0.256709 0,0.176389 0.08977,0.332304 0.226786,0.423648 -0.08347,-0.0031 -0.162215,-0.02677 -0.229936,-0.06457 0,0.0016 0,0.0047 0,0.0063 0,0.247259 0.174814,0.451996 0.4079,0.499243 -0.04252,0.01102 -0.0882,0.01732 -0.133867,0.01732 -0.03307,0 -0.06457,-0.0031 -0.09607,-0.0079 0.06457,0.201587 0.251984,0.348053 0.47562,0.352778 -0.174814,0.137016 -0.393725,0.217336 -0.631535,0.217336 -0.04252,0 -0.08189,-0.0016 -0.122842,-0.0063 0.22521,0.144891 0.492943,0.228361 0.78115,0.228361 0.935491,0 1.447334,-0.774851 1.447334,-1.447334 0,-0.02205 0,-0.0441 -0.0016,-0.06615 0.09922,-0.07245 0.185839,-0.162214 0.255134,-0.263008 z"
             style="font-style:normal;font-variant:normal;font-weight:normal;font-stretch:normal;font-size:2.82222223px;font-family:FontAwesome;-inkscape-font-specification:FontAwesome"
             id="path4784" />
        </g>
        <text
           xml:space="preserve"
           style="font-style:normal;font-variant:normal;font-weight:normal;font-stretch:normal;font-size:2.82222223px;line-height:125%;font-family:Cabin;-inkscape-font-specification:'Cabin, Normal';text-align:start;letter-spacing:0px;word-spacing:0px;writing-mode:lr-tb;text-anchor:start;fill:#000000;fill-opacity:1;stroke:none;stroke-width:1px;stroke-linecap:butt;stroke-linejoin:miter;stroke-opacity:1"
           x="28.796852"
           y="39.916996"
           id="text4175"
           sodipodi:linespacing="125%"><tspan
             sodipodi:role="line"
             id="tspan4177"
             x="28.796852"
             y="39.916996">＠mrdillon</tspan></text>
      </g>
      <g
         id="g4201"
         transform="translate(0,-2.5905258)">
        <g
           style="font-style:normal;font-variant:normal;font-weight:normal;font-stretch:normal;font-size:6.3499999px;line-height:125%;font-family:Cabin;-inkscape-font-specification:'Cabin, Normal';text-align:start;letter-spacing:0px;word-spacing:0px;writing-mode:lr-tb;text-anchor:start;fill:#000000;fill-opacity:1;stroke:none;stroke-width:1px;stroke-linecap:butt;stroke-linejoin:miter;stroke-opacity:1"
           id="text4163">
          <path
             d="m 27.118512,43.276854 c 0,-0.667758 -0.541765,-1.209524 -1.209523,-1.209524 -0.667758,0 -1.209524,0.541766 -1.209524,1.209524 0,0.533891 0.346478,0.987462 0.826823,1.148102 0.06142,0.01102 0.08347,-0.02677 0.08347,-0.05827 0,-0.02835 -0.0016,-0.124417 -0.0016,-0.225211 0,0 -0.337029,0.07245 -0.4079,-0.143316 0,0 -0.05512,-0.140166 -0.133866,-0.176389 0,0 -0.110243,-0.07559 0.0079,-0.07402 0,0 0.119693,0.0094 0.185838,0.124417 0.105519,0.185838 0.281908,0.132292 0.351203,0.100794 0.01103,-0.07874 0.04252,-0.130717 0.07717,-0.162215 -0.269309,-0.02992 -0.551216,-0.133867 -0.551216,-0.596888 0,-0.132291 0.04725,-0.240959 0.124417,-0.324429 -0.0126,-0.0315 -0.05355,-0.15434 0.01103,-0.32128 0.102368,-0.0315 0.333879,0.124417 0.333879,0.124417 0.09607,-0.02677 0.200012,-0.04095 0.302381,-0.04095 0.102368,0 0.206312,0.01417 0.302381,0.04095 0,0 0.23151,-0.155915 0.332304,-0.124417 0.06615,0.16694 0.0252,0.289782 0.0126,0.32128 0.07717,0.08347 0.124417,0.192138 0.124417,0.324429 0,0.464596 -0.283482,0.566965 -0.55279,0.596888 0.0441,0.0378 0.08189,0.110243 0.08189,0.223636 0,0.162215 0,0.292931 0,0.332304 0,0.0315 0.02047,0.0693 0.08189,0.05827 0.480344,-0.16064 0.826822,-0.614211 0.826822,-1.148102 z"
             style="font-style:normal;font-variant:normal;font-weight:normal;font-stretch:normal;font-size:2.82222223px;font-family:FontAwesome;-inkscape-font-specification:FontAwesome"
             id="path4787" />
        </g>
        <text
           xml:space="preserve"
           style="font-style:normal;font-variant:normal;font-weight:normal;font-stretch:normal;font-size:2.82222223px;line-height:125%;font-family:Cabin;-inkscape-font-specification:'Cabin, Normal';text-align:start;letter-spacing:0px;word-spacing:0px;writing-mode:lr-tb;text-anchor:start;fill:#000000;fill-opacity:1;stroke:none;stroke-width:1px;stroke-linecap:butt;stroke-linejoin:miter;stroke-opacity:1"
           x="28.796852"
           y="44.28479"
           id="text4179"
           sodipodi:linespacing="125%"><tspan
             sodipodi:role="line"
             id="tspan4181"
             x="28.796852"
             y="44.28479">＠md5</tspan></text>
      </g>
    </g>
  </g>
</svg>
